<svg width="191" height="28" viewBox="0 0 191 28" fill="none" xmlns="http://www.w3.org/2000/svg">
<path d="M0.726308 1.322H3.88331C4.52131 1.322 5.01997 1.50167 5.37931 1.861C5.74598 2.22033 5.92931 2.70067 5.92931 3.302C5.92931 3.588 5.88898 3.83 5.80831 4.028C5.72764 4.226 5.62498 4.391 5.50031 4.523C5.37564 4.64767 5.23998 4.743 5.09331 4.809C4.94664 4.86767 4.81098 4.908 4.68631 4.93V4.996C4.82564 5.00333 4.97964 5.04 5.14831 5.106C5.32431 5.172 5.48931 5.27833 5.64331 5.425C5.79731 5.56433 5.92564 5.74767 6.02831 5.975C6.13831 6.195 6.19331 6.46267 6.19331 6.778C6.19331 7.09333 6.14198 7.38667 6.03931 7.658C5.94398 7.92933 5.80831 8.164 5.63231 8.362C5.45631 8.56 5.24731 8.71767 5.00531 8.835C4.76331 8.945 4.49931 9 4.21331 9H0.726308V1.322ZM1.65031 8.186H3.92731C4.32331 8.186 4.63497 8.087 4.86231 7.889C5.08964 7.68367 5.20331 7.38667 5.20331 6.998V6.624C5.20331 6.23533 5.08964 5.942 4.86231 5.744C4.63497 5.53867 4.32331 5.436 3.92731 5.436H1.65031V8.186ZM1.65031 4.644H3.77331C4.13997 4.644 4.42597 4.55233 4.63131 4.369C4.83664 4.18567 4.93931 3.92167 4.93931 3.577V3.203C4.93931 2.85833 4.83664 2.59433 4.63131 2.411C4.42597 2.22767 4.13997 2.136 3.77331 2.136H1.65031V4.644ZM11.1274 3.324H11.9964L9.45541 10.32C9.38941 10.4887 9.32341 10.628 9.25741 10.738C9.19141 10.8553 9.11074 10.947 9.01541 11.013C8.92008 11.079 8.79908 11.1267 8.65241 11.156C8.51308 11.1853 8.34074 11.2 8.13541 11.2H7.68441V10.43H8.57541L9.00441 9.22L6.88141 3.324H7.76141L9.12541 7.185L9.38941 8.109H9.44441L9.75241 7.185L11.1274 3.324ZM17.2473 9.132C16.7193 9.132 16.2756 9.033 15.9163 8.835C15.5643 8.62967 15.2599 8.35833 15.0033 8.021L15.6303 7.515C15.8503 7.79367 16.0959 8.01 16.3673 8.164C16.6386 8.31067 16.9539 8.384 17.3133 8.384C17.6873 8.384 17.9769 8.30333 18.1823 8.142C18.3949 7.98067 18.5013 7.75333 18.5013 7.46C18.5013 7.24 18.4279 7.053 18.2813 6.899C18.1419 6.73767 17.8853 6.62767 17.5113 6.569L17.0603 6.503C16.7963 6.46633 16.5543 6.41133 16.3343 6.338C16.1143 6.25733 15.9199 6.15467 15.7513 6.03C15.5899 5.898 15.4616 5.73667 15.3663 5.546C15.2783 5.35533 15.2343 5.128 15.2343 4.864C15.2343 4.58533 15.2856 4.34333 15.3883 4.138C15.4909 3.92533 15.6303 3.74933 15.8063 3.61C15.9896 3.47067 16.2059 3.368 16.4553 3.302C16.7046 3.22867 16.9723 3.192 17.2583 3.192C17.7203 3.192 18.1053 3.27267 18.4133 3.434C18.7286 3.59533 19.0036 3.819 19.2383 4.105L18.6553 4.633C18.5306 4.457 18.3473 4.29933 18.1053 4.16C17.8633 4.01333 17.5589 3.94 17.1923 3.94C16.8256 3.94 16.5469 4.02067 16.3563 4.182C16.1729 4.336 16.0813 4.54867 16.0813 4.82C16.0813 5.09867 16.1729 5.30033 16.3563 5.425C16.5469 5.54967 16.8183 5.64133 17.1703 5.7L17.6103 5.766C18.2409 5.86133 18.6883 6.04467 18.9523 6.316C19.2163 6.58 19.3483 6.92833 19.3483 7.361C19.3483 7.911 19.1613 8.34367 18.7873 8.659C18.4133 8.97433 17.8999 9.132 17.2473 9.132ZM21.2546 1.993C21.064 1.993 20.9246 1.949 20.8366 1.861C20.756 1.76567 20.7156 1.64467 20.7156 1.498V1.355C20.7156 1.20833 20.756 1.091 20.8366 1.003C20.9246 0.907666 21.064 0.86 21.2546 0.86C21.4453 0.86 21.581 0.907666 21.6616 1.003C21.7496 1.091 21.7936 1.20833 21.7936 1.355V1.498C21.7936 1.64467 21.7496 1.76567 21.6616 1.861C21.581 1.949 21.4453 1.993 21.2546 1.993ZM20.8146 3.324H21.6946V9H20.8146V3.324ZM28.2616 9.627C28.2616 10.2137 28.0306 10.6427 27.5686 10.914C27.114 11.1927 26.4283 11.332 25.5116 11.332C24.6243 11.332 23.9863 11.211 23.5976 10.969C23.209 10.727 23.0146 10.3823 23.0146 9.935C23.0146 9.627 23.0953 9.385 23.2566 9.209C23.418 9.04033 23.638 8.91567 23.9166 8.835V8.714C23.5793 8.55267 23.4106 8.28867 23.4106 7.922C23.4106 7.636 23.5023 7.41967 23.6856 7.273C23.869 7.119 24.1036 7.00533 24.3896 6.932V6.888C24.0523 6.72667 23.7883 6.49567 23.5976 6.195C23.4143 5.89433 23.3226 5.546 23.3226 5.15C23.3226 4.864 23.374 4.6 23.4766 4.358C23.5793 4.116 23.7223 3.91067 23.9056 3.742C24.0963 3.566 24.32 3.43033 24.5766 3.335C24.8406 3.23967 25.134 3.192 25.4566 3.192C25.86 3.192 26.2193 3.26533 26.5346 3.412V3.313C26.5346 3.093 26.586 2.91333 26.6886 2.774C26.7913 2.62733 26.96 2.554 27.1946 2.554H28.0416V3.324H26.9636V3.687C27.169 3.863 27.3266 4.07567 27.4366 4.325C27.554 4.567 27.6126 4.842 27.6126 5.15C27.6126 5.436 27.5613 5.7 27.4586 5.942C27.356 6.184 27.2093 6.393 27.0186 6.569C26.8353 6.73767 26.6116 6.86967 26.3476 6.965C26.0836 7.06033 25.7903 7.108 25.4676 7.108C25.2843 7.108 25.101 7.08967 24.9176 7.053C24.727 7.10433 24.5546 7.18133 24.4006 7.284C24.2466 7.37933 24.1696 7.515 24.1696 7.691C24.1696 7.85967 24.2503 7.97333 24.4116 8.032C24.573 8.09067 24.782 8.12 25.0386 8.12H26.2486C26.9526 8.12 27.4623 8.25567 27.7776 8.527C28.1003 8.791 28.2616 9.15767 28.2616 9.627ZM27.4366 9.693C27.4366 9.46567 27.3486 9.28233 27.1726 9.143C27.004 9.011 26.6996 8.945 26.2596 8.945H24.3676C24.0156 9.10633 23.8396 9.363 23.8396 9.715C23.8396 9.96433 23.9313 10.177 24.1146 10.353C24.3053 10.529 24.6243 10.617 25.0716 10.617H25.8856C26.377 10.617 26.7583 10.54 27.0296 10.386C27.301 10.232 27.4366 10.001 27.4366 9.693ZM25.4676 6.404C25.8416 6.404 26.1386 6.316 26.3586 6.14C26.5786 5.95667 26.6886 5.678 26.6886 5.304V4.996C26.6886 4.622 26.5786 4.347 26.3586 4.171C26.1386 3.98767 25.8416 3.896 25.4676 3.896C25.0936 3.896 24.7966 3.98767 24.5766 4.171C24.3566 4.347 24.2466 4.622 24.2466 4.996V5.304C24.2466 5.678 24.3566 5.95667 24.5766 6.14C24.7966 6.316 25.0936 6.404 25.4676 6.404ZM29.2002 9V3.324H30.0802V4.248H30.1242C30.2635 3.92533 30.4578 3.66867 30.7072 3.478C30.9638 3.28733 31.3048 3.192 31.7302 3.192C32.3168 3.192 32.7788 3.38267 33.1162 3.764C33.4608 4.138 33.6332 4.66967 33.6332 5.359V9H32.7532V5.513C32.7532 4.49367 32.3242 3.984 31.4662 3.984C31.2902 3.984 31.1178 4.006 30.9492 4.05C30.7878 4.094 30.6412 4.16 30.5092 4.248C30.3772 4.336 30.2708 4.44967 30.1902 4.589C30.1168 4.721 30.0802 4.87867 30.0802 5.062V9H29.2002ZM35.8041 1.993C35.6134 1.993 35.4741 1.949 35.3861 1.861C35.3054 1.76567 35.2651 1.64467 35.2651 1.498V1.355C35.2651 1.20833 35.3054 1.091 35.3861 1.003C35.4741 0.907666 35.6134 0.86 35.8041 0.86C35.9948 0.86 36.1304 0.907666 36.2111 1.003C36.2991 1.091 36.3431 1.20833 36.3431 1.355V1.498C36.3431 1.64467 36.2991 1.76567 36.2111 1.861C36.1304 1.949 35.9948 1.993 35.8041 1.993ZM35.3641 3.324H36.2441V9H35.3641V3.324ZM38.0261 9V3.324H38.9061V4.248H38.9501C39.0894 3.92533 39.2838 3.66867 39.5331 3.478C39.7898 3.28733 40.1308 3.192 40.5561 3.192C41.1428 3.192 41.6048 3.38267 41.9421 3.764C42.2868 4.138 42.4591 4.66967 42.4591 5.359V9H41.5791V5.513C41.5791 4.49367 41.1501 3.984 40.2921 3.984C40.1161 3.984 39.9438 4.006 39.7751 4.05C39.6138 4.094 39.4671 4.16 39.3351 4.248C39.2031 4.336 39.0968 4.44967 39.0161 4.589C38.9428 4.721 38.9061 4.87867 38.9061 5.062V9H38.0261ZM48.9751 9.627C48.9751 10.2137 48.7441 10.6427 48.2821 10.914C47.8274 11.1927 47.1417 11.332 46.2251 11.332C45.3377 11.332 44.6997 11.211 44.3111 10.969C43.9224 10.727 43.7281 10.3823 43.7281 9.935C43.7281 9.627 43.8087 9.385 43.9701 9.209C44.1314 9.04033 44.3514 8.91567 44.6301 8.835V8.714C44.2927 8.55267 44.1241 8.28867 44.1241 7.922C44.1241 7.636 44.2157 7.41967 44.3991 7.273C44.5824 7.119 44.8171 7.00533 45.1031 6.932V6.888C44.7657 6.72667 44.5017 6.49567 44.3111 6.195C44.1277 5.89433 44.0361 5.546 44.0361 5.15C44.0361 4.864 44.0874 4.6 44.1901 4.358C44.2927 4.116 44.4357 3.91067 44.6191 3.742C44.8097 3.566 45.0334 3.43033 45.2901 3.335C45.5541 3.23967 45.8474 3.192 46.1701 3.192C46.5734 3.192 46.9327 3.26533 47.2481 3.412V3.313C47.2481 3.093 47.2994 2.91333 47.4021 2.774C47.5047 2.62733 47.6734 2.554 47.9081 2.554H48.7551V3.324H47.6771V3.687C47.8824 3.863 48.0401 4.07567 48.1501 4.325C48.2674 4.567 48.3261 4.842 48.3261 5.15C48.3261 5.436 48.2747 5.7 48.1721 5.942C48.0694 6.184 47.9227 6.393 47.7321 6.569C47.5487 6.73767 47.3251 6.86967 47.0611 6.965C46.7971 7.06033 46.5037 7.108 46.1811 7.108C45.9977 7.108 45.8144 7.08967 45.6311 7.053C45.4404 7.10433 45.2681 7.18133 45.1141 7.284C44.9601 7.37933 44.8831 7.515 44.8831 7.691C44.8831 7.85967 44.9637 7.97333 45.1251 8.032C45.2864 8.09067 45.4954 8.12 45.7521 8.12H46.9621C47.6661 8.12 48.1757 8.25567 48.4911 8.527C48.8137 8.791 48.9751 9.15767 48.9751 9.627ZM48.1501 9.693C48.1501 9.46567 48.0621 9.28233 47.8861 9.143C47.7174 9.011 47.4131 8.945 46.9731 8.945H45.0811C44.7291 9.10633 44.5531 9.363 44.5531 9.715C44.5531 9.96433 44.6447 10.177 44.8281 10.353C45.0187 10.529 45.3377 10.617 45.7851 10.617H46.5991C47.0904 10.617 47.4717 10.54 47.7431 10.386C48.0144 10.232 48.1501 10.001 48.1501 9.693ZM46.1811 6.404C46.5551 6.404 46.8521 6.316 47.0721 6.14C47.2921 5.95667 47.4021 5.678 47.4021 5.304V4.996C47.4021 4.622 47.2921 4.347 47.0721 4.171C46.8521 3.98767 46.5551 3.896 46.1811 3.896C45.8071 3.896 45.5101 3.98767 45.2901 4.171C45.0701 4.347 44.9601 4.622 44.9601 4.996V5.304C44.9601 5.678 45.0701 5.95667 45.2901 6.14C45.5101 6.316 45.8071 6.404 46.1811 6.404ZM55.9232 8.076H55.8792C55.8205 8.208 55.7472 8.34 55.6592 8.472C55.5785 8.59667 55.4759 8.71033 55.3512 8.813C55.2265 8.90833 55.0762 8.98533 54.9002 9.044C54.7242 9.10267 54.5189 9.132 54.2842 9.132C53.6975 9.132 53.2319 8.945 52.8872 8.571C52.5425 8.18967 52.3702 7.65433 52.3702 6.965V3.324H53.2502V6.811C53.2502 7.83033 53.6829 8.34 54.5482 8.34C54.7242 8.34 54.8929 8.318 55.0542 8.274C55.2229 8.23 55.3695 8.164 55.4942 8.076C55.6262 7.988 55.7289 7.878 55.8022 7.746C55.8829 7.60667 55.9232 7.44167 55.9232 7.251V3.324H56.8032V9H55.9232V8.076ZM58.5891 3.324H59.4691V4.248H59.5131C59.6598 3.88867 59.8725 3.62467 60.1511 3.456C60.4371 3.28 60.7781 3.192 61.1741 3.192C61.5261 3.192 61.8451 3.26167 62.1311 3.401C62.4171 3.54033 62.6591 3.73833 62.8571 3.995C63.0625 4.25167 63.2165 4.56333 63.3191 4.93C63.4291 5.29667 63.4841 5.70733 63.4841 6.162C63.4841 6.61667 63.4291 7.02733 63.3191 7.394C63.2165 7.76067 63.0625 8.07233 62.8571 8.329C62.6591 8.58567 62.4171 8.78367 62.1311 8.923C61.8451 9.06233 61.5261 9.132 61.1741 9.132C60.4041 9.132 59.8505 8.78 59.5131 8.076H59.4691V11.2H58.5891V3.324ZM60.9321 8.34C61.4308 8.34 61.8231 8.186 62.1091 7.878C62.3951 7.56267 62.5381 7.152 62.5381 6.646V5.678C62.5381 5.172 62.3951 4.765 62.1091 4.457C61.8231 4.14167 61.4308 3.984 60.9321 3.984C60.7341 3.984 60.5435 4.01333 60.3601 4.072C60.1841 4.12333 60.0301 4.19667 59.8981 4.292C59.7661 4.38733 59.6598 4.50467 59.5791 4.644C59.5058 4.776 59.4691 4.919 59.4691 5.073V7.185C59.4691 7.36833 59.5058 7.53333 59.5791 7.68C59.6598 7.81933 59.7661 7.94033 59.8981 8.043C60.0301 8.13833 60.1841 8.21167 60.3601 8.263C60.5435 8.31433 60.7341 8.34 60.9321 8.34ZM65.2282 7.713C65.4628 7.713 65.6315 7.77533 65.7342 7.9C65.8442 8.01733 65.8992 8.17133 65.8992 8.362V8.516C65.8992 8.81667 65.8112 9.14667 65.6352 9.506C65.4592 9.87267 65.2135 10.1917 64.8982 10.463H64.1612C64.3812 10.2283 64.5572 10.0047 64.6892 9.792C64.8285 9.58667 64.9275 9.35567 64.9862 9.099C64.8395 9.06233 64.7295 8.99267 64.6562 8.89C64.5902 8.78733 64.5572 8.66267 64.5572 8.516V8.362C64.5572 8.17133 64.6085 8.01733 64.7112 7.9C64.8212 7.77533 64.9935 7.713 65.2282 7.713ZM73.5858 3.324H74.4548L71.9138 10.32C71.8478 10.4887 71.7818 10.628 71.7158 10.738C71.6498 10.8553 71.5692 10.947 71.4738 11.013C71.3785 11.079 71.2575 11.1267 71.1108 11.156C70.9715 11.1853 70.7992 11.2 70.5938 11.2H70.1428V10.43H71.0338L71.4628 9.22L69.3398 3.324H70.2198L71.5838 7.185L71.8478 8.109H71.9028L72.2108 7.185L73.5858 3.324ZM77.5804 9.132C77.1991 9.132 76.8507 9.06233 76.5354 8.923C76.2201 8.78367 75.9487 8.58567 75.7214 8.329C75.5014 8.065 75.3291 7.75333 75.2044 7.394C75.0797 7.02733 75.0174 6.61667 75.0174 6.162C75.0174 5.71467 75.0797 5.30767 75.2044 4.941C75.3291 4.57433 75.5014 4.26267 75.7214 4.006C75.9487 3.742 76.2201 3.54033 76.5354 3.401C76.8507 3.26167 77.1991 3.192 77.5804 3.192C77.9617 3.192 78.3064 3.26167 78.6144 3.401C78.9297 3.54033 79.2011 3.742 79.4284 4.006C79.6557 4.26267 79.8317 4.57433 79.9564 4.941C80.0811 5.30767 80.1434 5.71467 80.1434 6.162C80.1434 6.61667 80.0811 7.02733 79.9564 7.394C79.8317 7.75333 79.6557 8.065 79.4284 8.329C79.2011 8.58567 78.9297 8.78367 78.6144 8.923C78.3064 9.06233 77.9617 9.132 77.5804 9.132ZM77.5804 8.351C78.0571 8.351 78.4457 8.20433 78.7464 7.911C79.0471 7.61767 79.1974 7.17033 79.1974 6.569V5.755C79.1974 5.15367 79.0471 4.70633 78.7464 4.413C78.4457 4.11967 78.0571 3.973 77.5804 3.973C77.1037 3.973 76.7151 4.11967 76.4144 4.413C76.1137 4.70633 75.9634 5.15367 75.9634 5.755V6.569C75.9634 7.17033 76.1137 7.61767 76.4144 7.911C76.7151 8.20433 77.1037 8.351 77.5804 8.351ZM85.0007 8.076H84.9567C84.898 8.208 84.8247 8.34 84.7367 8.472C84.656 8.59667 84.5533 8.71033 84.4287 8.813C84.304 8.90833 84.1537 8.98533 83.9777 9.044C83.8017 9.10267 83.5963 9.132 83.3617 9.132C82.775 9.132 82.3093 8.945 81.9647 8.571C81.62 8.18967 81.4477 7.65433 81.4477 6.965V3.324H82.3277V6.811C82.3277 7.83033 82.7603 8.34 83.6257 8.34C83.8017 8.34 83.9703 8.318 84.1317 8.274C84.3003 8.23 84.447 8.164 84.5717 8.076C84.7037 7.988 84.8063 7.878 84.8797 7.746C84.9603 7.60667 85.0007 7.44167 85.0007 7.251V3.324H85.8807V9H85.0007V8.076ZM94.3032 9C93.9732 9 93.7349 8.912 93.5882 8.736C93.4489 8.56 93.3609 8.34 93.3242 8.076H93.2692C93.1446 8.428 92.9392 8.692 92.6532 8.868C92.3672 9.044 92.0262 9.132 91.6302 9.132C91.0289 9.132 90.5596 8.978 90.2222 8.67C89.8922 8.362 89.7272 7.944 89.7272 7.416C89.7272 6.88067 89.9216 6.47 90.3102 6.184C90.7062 5.898 91.3186 5.755 92.1472 5.755H93.2692V5.194C93.2692 4.79067 93.1592 4.48267 92.9392 4.27C92.7192 4.05733 92.3819 3.951 91.9272 3.951C91.5826 3.951 91.2929 4.028 91.0582 4.182C90.8309 4.336 90.6402 4.54133 90.4862 4.798L89.9582 4.303C90.1122 3.995 90.3579 3.73467 90.6952 3.522C91.0326 3.302 91.4579 3.192 91.9712 3.192C92.6606 3.192 93.1959 3.36067 93.5772 3.698C93.9586 4.03533 94.1492 4.50467 94.1492 5.106V8.23H94.7982V9H94.3032ZM91.7732 8.384C91.9932 8.384 92.1949 8.35833 92.3782 8.307C92.5616 8.25567 92.7192 8.18233 92.8512 8.087C92.9832 7.99167 93.0859 7.88167 93.1592 7.757C93.2326 7.63233 93.2692 7.49667 93.2692 7.35V6.415H92.1032C91.5972 6.415 91.2269 6.48833 90.9922 6.635C90.7649 6.78167 90.6512 6.99433 90.6512 7.273V7.504C90.6512 7.78267 90.7502 7.999 90.9482 8.153C91.1536 8.307 91.4286 8.384 91.7732 8.384ZM100.751 9.627C100.751 10.2137 100.52 10.6427 100.058 10.914C99.6035 11.1927 98.9179 11.332 98.0012 11.332C97.1139 11.332 96.4759 11.211 96.0872 10.969C95.6985 10.727 95.5042 10.3823 95.5042 9.935C95.5042 9.627 95.5849 9.385 95.7462 9.209C95.9075 9.04033 96.1275 8.91567 96.4062 8.835V8.714C96.0689 8.55267 95.9002 8.28867 95.9002 7.922C95.9002 7.636 95.9919 7.41967 96.1752 7.273C96.3585 7.119 96.5932 7.00533 96.8792 6.932V6.888C96.5419 6.72667 96.2779 6.49567 96.0872 6.195C95.9039 5.89433 95.8122 5.546 95.8122 5.15C95.8122 4.864 95.8635 4.6 95.9662 4.358C96.0689 4.116 96.2119 3.91067 96.3952 3.742C96.5859 3.566 96.8095 3.43033 97.0662 3.335C97.3302 3.23967 97.6235 3.192 97.9462 3.192C98.3495 3.192 98.7089 3.26533 99.0242 3.412V3.313C99.0242 3.093 99.0755 2.91333 99.1782 2.774C99.2809 2.62733 99.4495 2.554 99.6842 2.554H100.531V3.324H99.4532V3.687C99.6585 3.863 99.8162 4.07567 99.9262 4.325C100.044 4.567 100.102 4.842 100.102 5.15C100.102 5.436 100.051 5.7 99.9482 5.942C99.8455 6.184 99.6989 6.393 99.5082 6.569C99.3249 6.73767 99.1012 6.86967 98.8372 6.965C98.5732 7.06033 98.2799 7.108 97.9572 7.108C97.7739 7.108 97.5905 7.08967 97.4072 7.053C97.2165 7.10433 97.0442 7.18133 96.8902 7.284C96.7362 7.37933 96.6592 7.515 96.6592 7.691C96.6592 7.85967 96.7399 7.97333 96.9012 8.032C97.0625 8.09067 97.2715 8.12 97.5282 8.12H98.7382C99.4422 8.12 99.9519 8.25567 100.267 8.527C100.59 8.791 100.751 9.15767 100.751 9.627ZM99.9262 9.693C99.9262 9.46567 99.8382 9.28233 99.6622 9.143C99.4935 9.011 99.1892 8.945 98.7492 8.945H96.8572C96.5052 9.10633 96.3292 9.363 96.3292 9.715C96.3292 9.96433 96.4209 10.177 96.6042 10.353C96.7949 10.529 97.1139 10.617 97.5612 10.617H98.3752C98.8665 10.617 99.2479 10.54 99.5192 10.386C99.7905 10.232 99.9262 10.001 99.9262 9.693ZM97.9572 6.404C98.3312 6.404 98.6282 6.316 98.8482 6.14C99.0682 5.95667 99.1782 5.678 99.1782 5.304V4.996C99.1782 4.622 99.0682 4.347 98.8482 4.171C98.6282 3.98767 98.3312 3.896 97.9572 3.896C97.5832 3.896 97.2862 3.98767 97.0662 4.171C96.8462 4.347 96.7362 4.622 96.7362 4.996V5.304C96.7362 5.678 96.8462 5.95667 97.0662 6.14C97.2862 6.316 97.5832 6.404 97.9572 6.404ZM101.69 9V3.324H102.57V4.369H102.625C102.727 4.09767 102.911 3.85567 103.175 3.643C103.439 3.43033 103.802 3.324 104.264 3.324H104.605V4.204H104.088C103.611 4.204 103.237 4.29567 102.966 4.479C102.702 4.655 102.57 4.87867 102.57 5.15V9H101.69ZM107.721 9.132C107.332 9.132 106.98 9.06233 106.665 8.923C106.357 8.78367 106.089 8.58567 105.862 8.329C105.642 8.065 105.47 7.75333 105.345 7.394C105.228 7.02733 105.169 6.61667 105.169 6.162C105.169 5.71467 105.228 5.30767 105.345 4.941C105.47 4.57433 105.642 4.26267 105.862 4.006C106.089 3.742 106.357 3.54033 106.665 3.401C106.98 3.26167 107.332 3.192 107.721 3.192C108.102 3.192 108.443 3.26167 108.744 3.401C109.045 3.54033 109.301 3.73467 109.514 3.984C109.727 4.226 109.888 4.51567 109.998 4.853C110.115 5.19033 110.174 5.56067 110.174 5.964V6.382H106.093V6.646C106.093 6.888 106.13 7.11533 106.203 7.328C106.284 7.53333 106.394 7.713 106.533 7.867C106.68 8.021 106.856 8.142 107.061 8.23C107.274 8.318 107.512 8.362 107.776 8.362C108.135 8.362 108.447 8.27767 108.711 8.109C108.982 7.94033 109.191 7.69833 109.338 7.383L109.965 7.834C109.782 8.22267 109.496 8.538 109.107 8.78C108.718 9.01467 108.256 9.132 107.721 9.132ZM107.721 3.929C107.479 3.929 107.259 3.973 107.061 4.061C106.863 4.14167 106.691 4.259 106.544 4.413C106.405 4.567 106.295 4.75033 106.214 4.963C106.133 5.16833 106.093 5.39567 106.093 5.645V5.722H109.228V5.601C109.228 5.095 109.089 4.69167 108.81 4.391C108.539 4.083 108.176 3.929 107.721 3.929ZM113.67 9.132C113.282 9.132 112.93 9.06233 112.614 8.923C112.306 8.78367 112.039 8.58567 111.811 8.329C111.591 8.065 111.419 7.75333 111.294 7.394C111.177 7.02733 111.118 6.61667 111.118 6.162C111.118 5.71467 111.177 5.30767 111.294 4.941C111.419 4.57433 111.591 4.26267 111.811 4.006C112.039 3.742 112.306 3.54033 112.614 3.401C112.93 3.26167 113.282 3.192 113.67 3.192C114.052 3.192 114.393 3.26167 114.693 3.401C114.994 3.54033 115.251 3.73467 115.463 3.984C115.676 4.226 115.837 4.51567 115.947 4.853C116.065 5.19033 116.123 5.56067 116.123 5.964V6.382H112.042V6.646C112.042 6.888 112.079 7.11533 112.152 7.328C112.233 7.53333 112.343 7.713 112.482 7.867C112.629 8.021 112.805 8.142 113.01 8.23C113.223 8.318 113.461 8.362 113.725 8.362C114.085 8.362 114.396 8.27767 114.66 8.109C114.932 7.94033 115.141 7.69833 115.287 7.383L115.914 7.834C115.731 8.22267 115.445 8.538 115.056 8.78C114.668 9.01467 114.206 9.132 113.67 9.132ZM113.67 3.929C113.428 3.929 113.208 3.973 113.01 4.061C112.812 4.14167 112.64 4.259 112.493 4.413C112.354 4.567 112.244 4.75033 112.163 4.963C112.083 5.16833 112.042 5.39567 112.042 5.645V5.722H115.177V5.601C115.177 5.095 115.038 4.69167 114.759 4.391C114.488 4.083 114.125 3.929 113.67 3.929ZM121.251 9C120.943 9 120.708 8.91567 120.547 8.747C120.393 8.571 120.316 8.34367 120.316 8.065V4.094H119.381V3.324H119.909C120.1 3.324 120.228 3.28733 120.294 3.214C120.367 3.13333 120.404 2.99767 120.404 2.807V1.751H121.196V3.324H122.439V4.094H121.196V8.23H122.351V9H121.251ZM125.867 9.132C125.486 9.132 125.138 9.06233 124.822 8.923C124.507 8.78367 124.236 8.58567 124.008 8.329C123.788 8.065 123.616 7.75333 123.491 7.394C123.367 7.02733 123.304 6.61667 123.304 6.162C123.304 5.71467 123.367 5.30767 123.491 4.941C123.616 4.57433 123.788 4.26267 124.008 4.006C124.236 3.742 124.507 3.54033 124.822 3.401C125.138 3.26167 125.486 3.192 125.867 3.192C126.249 3.192 126.593 3.26167 126.901 3.401C127.217 3.54033 127.488 3.742 127.715 4.006C127.943 4.26267 128.119 4.57433 128.243 4.941C128.368 5.30767 128.43 5.71467 128.43 6.162C128.43 6.61667 128.368 7.02733 128.243 7.394C128.119 7.75333 127.943 8.065 127.715 8.329C127.488 8.58567 127.217 8.78367 126.901 8.923C126.593 9.06233 126.249 9.132 125.867 9.132ZM125.867 8.351C126.344 8.351 126.733 8.20433 127.033 7.911C127.334 7.61767 127.484 7.17033 127.484 6.569V5.755C127.484 5.15367 127.334 4.70633 127.033 4.413C126.733 4.11967 126.344 3.973 125.867 3.973C125.391 3.973 125.002 4.11967 124.701 4.413C124.401 4.70633 124.25 5.15367 124.25 5.755V6.569C124.25 7.17033 124.401 7.61767 124.701 7.911C125.002 8.20433 125.391 8.351 125.867 8.351ZM134.446 9.132C134.065 9.132 133.717 9.06233 133.401 8.923C133.086 8.78367 132.815 8.58567 132.587 8.329C132.367 8.065 132.195 7.75333 132.07 7.394C131.946 7.02733 131.883 6.61667 131.883 6.162C131.883 5.71467 131.946 5.30767 132.07 4.941C132.195 4.57433 132.367 4.26267 132.587 4.006C132.815 3.742 133.086 3.54033 133.401 3.401C133.717 3.26167 134.065 3.192 134.446 3.192C134.828 3.192 135.172 3.26167 135.48 3.401C135.796 3.54033 136.067 3.742 136.294 4.006C136.522 4.26267 136.698 4.57433 136.822 4.941C136.947 5.30767 137.009 5.71467 137.009 6.162C137.009 6.61667 136.947 7.02733 136.822 7.394C136.698 7.75333 136.522 8.065 136.294 8.329C136.067 8.58567 135.796 8.78367 135.48 8.923C135.172 9.06233 134.828 9.132 134.446 9.132ZM134.446 8.351C134.923 8.351 135.312 8.20433 135.612 7.911C135.913 7.61767 136.063 7.17033 136.063 6.569V5.755C136.063 5.15367 135.913 4.70633 135.612 4.413C135.312 4.11967 134.923 3.973 134.446 3.973C133.97 3.973 133.581 4.11967 133.28 4.413C132.98 4.70633 132.829 5.15367 132.829 5.755V6.569C132.829 7.17033 132.98 7.61767 133.28 7.911C133.581 8.20433 133.97 8.351 134.446 8.351ZM141.867 8.076H141.823C141.764 8.208 141.691 8.34 141.603 8.472C141.522 8.59667 141.419 8.71033 141.295 8.813C141.17 8.90833 141.02 8.98533 140.844 9.044C140.668 9.10267 140.462 9.132 140.228 9.132C139.641 9.132 139.175 8.945 138.831 8.571C138.486 8.18967 138.314 7.65433 138.314 6.965V3.324H139.194V6.811C139.194 7.83033 139.626 8.34 140.492 8.34C140.668 8.34 140.836 8.318 140.998 8.274C141.166 8.23 141.313 8.164 141.438 8.076C141.57 7.988 141.672 7.878 141.746 7.746C141.826 7.60667 141.867 7.44167 141.867 7.251V3.324H142.747V9H141.867V8.076ZM144.532 9V3.324H145.412V4.369H145.467C145.57 4.09767 145.753 3.85567 146.017 3.643C146.281 3.43033 146.644 3.324 147.106 3.324H147.447V4.204H146.93C146.454 4.204 146.08 4.29567 145.808 4.479C145.544 4.655 145.412 4.87867 145.412 5.15V9H144.532ZM153.668 2.136V9H152.744V2.136H150.302V1.322H156.11V2.136H153.668ZM158.616 9.132C158.228 9.132 157.876 9.06233 157.56 8.923C157.252 8.78367 156.985 8.58567 156.757 8.329C156.537 8.065 156.365 7.75333 156.24 7.394C156.123 7.02733 156.064 6.61667 156.064 6.162C156.064 5.71467 156.123 5.30767 156.24 4.941C156.365 4.57433 156.537 4.26267 156.757 4.006C156.985 3.742 157.252 3.54033 157.56 3.401C157.876 3.26167 158.228 3.192 158.616 3.192C158.998 3.192 159.339 3.26167 159.639 3.401C159.94 3.54033 160.197 3.73467 160.409 3.984C160.622 4.226 160.783 4.51567 160.893 4.853C161.011 5.19033 161.069 5.56067 161.069 5.964V6.382H156.988V6.646C156.988 6.888 157.025 7.11533 157.098 7.328C157.179 7.53333 157.289 7.713 157.428 7.867C157.575 8.021 157.751 8.142 157.956 8.23C158.169 8.318 158.407 8.362 158.671 8.362C159.031 8.362 159.342 8.27767 159.606 8.109C159.878 7.94033 160.087 7.69833 160.233 7.383L160.86 7.834C160.677 8.22267 160.391 8.538 160.002 8.78C159.614 9.01467 159.152 9.132 158.616 9.132ZM158.616 3.929C158.374 3.929 158.154 3.973 157.956 4.061C157.758 4.14167 157.586 4.259 157.439 4.413C157.3 4.567 157.19 4.75033 157.109 4.963C157.029 5.16833 156.988 5.39567 156.988 5.645V5.722H160.123V5.601C160.123 5.095 159.984 4.69167 159.705 4.391C159.434 4.083 159.071 3.929 158.616 3.929ZM162.431 9V3.324H163.311V4.369H163.366C163.469 4.09767 163.652 3.85567 163.916 3.643C164.18 3.43033 164.543 3.324 165.005 3.324H165.346V4.204H164.829C164.353 4.204 163.979 4.29567 163.707 4.479C163.443 4.655 163.311 4.87867 163.311 5.15V9H162.431ZM166.383 9V3.324H167.263V4.248H167.307C167.373 4.10133 167.446 3.96567 167.527 3.841C167.615 3.709 167.717 3.59533 167.835 3.5C167.959 3.40467 168.102 3.33133 168.264 3.28C168.425 3.22133 168.616 3.192 168.836 3.192C169.21 3.192 169.554 3.28367 169.87 3.467C170.185 3.643 170.42 3.93633 170.574 4.347H170.596C170.698 4.039 170.889 3.77133 171.168 3.544C171.454 3.30933 171.839 3.192 172.323 3.192C172.902 3.192 173.353 3.38267 173.676 3.764C174.006 4.138 174.171 4.66967 174.171 5.359V9H173.291V5.513C173.291 5.007 173.192 4.62567 172.994 4.369C172.796 4.11233 172.48 3.984 172.048 3.984C171.872 3.984 171.703 4.006 171.542 4.05C171.388 4.094 171.248 4.16 171.124 4.248C170.999 4.336 170.9 4.44967 170.827 4.589C170.753 4.721 170.717 4.87867 170.717 5.062V9H169.837V5.513C169.837 5.007 169.738 4.62567 169.54 4.369C169.342 4.11233 169.034 3.984 168.616 3.984C168.44 3.984 168.271 4.006 168.11 4.05C167.948 4.094 167.805 4.16 167.681 4.248C167.556 4.336 167.453 4.44967 167.373 4.589C167.299 4.721 167.263 4.87867 167.263 5.062V9H166.383ZM177.603 9.132C177.075 9.132 176.631 9.033 176.272 8.835C175.92 8.62967 175.616 8.35833 175.359 8.021L175.986 7.515C176.206 7.79367 176.452 8.01 176.723 8.164C176.994 8.31067 177.31 8.384 177.669 8.384C178.043 8.384 178.333 8.30333 178.538 8.142C178.751 7.98067 178.857 7.75333 178.857 7.46C178.857 7.24 178.784 7.053 178.637 6.899C178.498 6.73767 178.241 6.62767 177.867 6.569L177.416 6.503C177.152 6.46633 176.91 6.41133 176.69 6.338C176.47 6.25733 176.276 6.15467 176.107 6.03C175.946 5.898 175.817 5.73667 175.722 5.546C175.634 5.35533 175.59 5.128 175.59 4.864C175.59 4.58533 175.641 4.34333 175.744 4.138C175.847 3.92533 175.986 3.74933 176.162 3.61C176.345 3.47067 176.562 3.368 176.811 3.302C177.06 3.22867 177.328 3.192 177.614 3.192C178.076 3.192 178.461 3.27267 178.769 3.434C179.084 3.59533 179.359 3.819 179.594 4.105L179.011 4.633C178.886 4.457 178.703 4.29933 178.461 4.16C178.219 4.01333 177.915 3.94 177.548 3.94C177.181 3.94 176.903 4.02067 176.712 4.182C176.529 4.336 176.437 4.54867 176.437 4.82C176.437 5.09867 176.529 5.30033 176.712 5.425C176.903 5.54967 177.174 5.64133 177.526 5.7L177.966 5.766C178.597 5.86133 179.044 6.04467 179.308 6.316C179.572 6.58 179.704 6.92833 179.704 7.361C179.704 7.911 179.517 8.34367 179.143 8.659C178.769 8.97433 178.256 9.132 177.603 9.132ZM188.126 8.098C188.045 8.19333 187.943 8.30333 187.818 8.428C187.693 8.54533 187.539 8.65533 187.356 8.758C187.18 8.86067 186.967 8.94867 186.718 9.022C186.476 9.09533 186.201 9.132 185.893 9.132C185.512 9.132 185.174 9.077 184.881 8.967C184.588 8.857 184.342 8.70667 184.144 8.516C183.946 8.318 183.796 8.09067 183.693 7.834C183.59 7.57733 183.539 7.30233 183.539 7.009C183.539 6.723 183.583 6.47 183.671 6.25C183.759 6.03 183.876 5.83567 184.023 5.667C184.177 5.491 184.346 5.337 184.529 5.205C184.72 5.073 184.914 4.952 185.112 4.842C184.848 4.56333 184.635 4.281 184.474 3.995C184.32 3.70167 184.243 3.38267 184.243 3.038C184.243 2.78133 184.291 2.53933 184.386 2.312C184.481 2.08467 184.613 1.89033 184.782 1.729C184.958 1.56033 185.167 1.42833 185.409 1.333C185.658 1.23767 185.933 1.19 186.234 1.19C186.505 1.19 186.755 1.23033 186.982 1.311C187.209 1.39167 187.404 1.50533 187.565 1.652C187.726 1.79133 187.851 1.96367 187.939 2.169C188.034 2.37433 188.082 2.598 188.082 2.84C188.082 3.09667 188.034 3.32767 187.939 3.533C187.851 3.731 187.726 3.91433 187.565 4.083C187.404 4.25167 187.217 4.40933 187.004 4.556C186.791 4.69533 186.564 4.831 186.322 4.963L188.049 6.822C188.159 6.54333 188.243 6.24633 188.302 5.931C188.361 5.61567 188.397 5.293 188.412 4.963H189.908V5.711H189.127C189.076 6.03367 189.006 6.338 188.918 6.624C188.83 6.90267 188.724 7.163 188.599 7.405L190.095 9H188.951L188.126 8.098ZM186.19 1.927C185.875 1.927 185.614 2.026 185.409 2.224C185.211 2.422 185.112 2.66767 185.112 2.961V3.093C185.112 3.313 185.178 3.53667 185.31 3.764C185.449 3.984 185.629 4.21867 185.849 4.468C186.025 4.37267 186.194 4.27367 186.355 4.171C186.524 4.061 186.67 3.94367 186.795 3.819C186.927 3.69433 187.033 3.566 187.114 3.434C187.195 3.29467 187.235 3.148 187.235 2.994V2.862C187.235 2.56133 187.129 2.33033 186.916 2.169C186.711 2.00767 186.469 1.927 186.19 1.927ZM185.97 8.362C186.344 8.362 186.667 8.29233 186.938 8.153C187.209 8.00633 187.44 7.812 187.631 7.57L185.574 5.348C185.427 5.42867 185.284 5.513 185.145 5.601C185.013 5.689 184.896 5.79533 184.793 5.92C184.69 6.03733 184.606 6.17667 184.54 6.338C184.481 6.492 184.452 6.67533 184.452 6.888V7.053C184.452 7.45633 184.588 7.77533 184.859 8.01C185.138 8.24467 185.508 8.362 185.97 8.362ZM36.9497 25.132C36.5537 25.132 36.1981 25.0623 35.8827 24.923C35.5674 24.7837 35.2997 24.5857 35.0797 24.329C34.8671 24.0723 34.7021 23.7607 34.5847 23.394C34.4747 23.0273 34.4197 22.6167 34.4197 22.162C34.4197 21.7073 34.4747 21.2967 34.5847 20.93C34.7021 20.5633 34.8671 20.2517 35.0797 19.995C35.2997 19.7383 35.5674 19.5403 35.8827 19.401C36.1981 19.2617 36.5537 19.192 36.9497 19.192C37.5144 19.192 37.9654 19.3167 38.3027 19.566C38.6474 19.808 38.9041 20.127 39.0727 20.523L38.3357 20.897C38.2331 20.6037 38.0644 20.3763 37.8297 20.215C37.5951 20.0537 37.3017 19.973 36.9497 19.973C36.6857 19.973 36.4547 20.017 36.2567 20.105C36.0587 20.1857 35.8937 20.303 35.7617 20.457C35.6297 20.6037 35.5307 20.7833 35.4647 20.996C35.3987 21.2013 35.3657 21.4287 35.3657 21.678V22.646C35.3657 23.1447 35.4977 23.5553 35.7617 23.878C36.0331 24.1933 36.4291 24.351 36.9497 24.351C37.6611 24.351 38.1744 24.021 38.4897 23.361L39.1277 23.79C38.9444 24.2007 38.6694 24.527 38.3027 24.769C37.9434 25.011 37.4924 25.132 36.9497 25.132ZM42.3625 25.132C41.9812 25.132 41.6328 25.0623 41.3175 24.923C41.0022 24.7837 40.7308 24.5857 40.5035 24.329C40.2835 24.065 40.1112 23.7533 39.9865 23.394C39.8618 23.0273 39.7995 22.6167 39.7995 22.162C39.7995 21.7147 39.8618 21.3077 39.9865 20.941C40.1112 20.5743 40.2835 20.2627 40.5035 20.006C40.7308 19.742 41.0022 19.5403 41.3175 19.401C41.6328 19.2617 41.9812 19.192 42.3625 19.192C42.7438 19.192 43.0885 19.2617 43.3965 19.401C43.7118 19.5403 43.9832 19.742 44.2105 20.006C44.4378 20.2627 44.6138 20.5743 44.7385 20.941C44.8632 21.3077 44.9255 21.7147 44.9255 22.162C44.9255 22.6167 44.8632 23.0273 44.7385 23.394C44.6138 23.7533 44.4378 24.065 44.2105 24.329C43.9832 24.5857 43.7118 24.7837 43.3965 24.923C43.0885 25.0623 42.7438 25.132 42.3625 25.132ZM42.3625 24.351C42.8392 24.351 43.2278 24.2043 43.5285 23.911C43.8292 23.6177 43.9795 23.1703 43.9795 22.569V21.755C43.9795 21.1537 43.8292 20.7063 43.5285 20.413C43.2278 20.1197 42.8392 19.973 42.3625 19.973C41.8858 19.973 41.4972 20.1197 41.1965 20.413C40.8958 20.7063 40.7455 21.1537 40.7455 21.755V22.569C40.7455 23.1703 40.8958 23.6177 41.1965 23.911C41.4972 24.2043 41.8858 24.351 42.3625 24.351ZM46.2848 25V19.324H47.1648V20.248H47.2088C47.3481 19.9253 47.5424 19.6687 47.7918 19.478C48.0484 19.2873 48.3894 19.192 48.8148 19.192C49.4014 19.192 49.8634 19.3827 50.2008 19.764C50.5454 20.138 50.7178 20.6697 50.7178 21.359V25H49.8378V21.513C49.8378 20.4937 49.4088 19.984 48.5508 19.984C48.3748 19.984 48.2024 20.006 48.0338 20.05C47.8724 20.094 47.7258 20.16 47.5938 20.248C47.4618 20.336 47.3554 20.4497 47.2748 20.589C47.2014 20.721 47.1648 20.8787 47.1648 21.062V25H46.2848ZM56.0787 24.076H56.0347C55.6901 24.78 55.1364 25.132 54.3737 25.132C54.0217 25.132 53.7027 25.0623 53.4167 24.923C53.1307 24.7837 52.8851 24.5857 52.6797 24.329C52.4817 24.0723 52.3277 23.7607 52.2177 23.394C52.1151 23.0273 52.0637 22.6167 52.0637 22.162C52.0637 21.7073 52.1151 21.2967 52.2177 20.93C52.3277 20.5633 52.4817 20.2517 52.6797 19.995C52.8851 19.7383 53.1307 19.5403 53.4167 19.401C53.7027 19.2617 54.0217 19.192 54.3737 19.192C54.7697 19.192 55.1071 19.28 55.3857 19.456C55.6717 19.6247 55.8881 19.8887 56.0347 20.248H56.0787V16.86H56.9587V25H56.0787V24.076ZM54.6157 24.34C54.8137 24.34 55.0007 24.3143 55.1767 24.263C55.3601 24.2117 55.5177 24.1383 55.6497 24.043C55.7817 23.9403 55.8844 23.8193 55.9577 23.68C56.0384 23.5333 56.0787 23.3683 56.0787 23.185V21.073C56.0787 20.919 56.0384 20.776 55.9577 20.644C55.8844 20.5047 55.7817 20.3873 55.6497 20.292C55.5177 20.1967 55.3601 20.1233 55.1767 20.072C55.0007 20.0133 54.8137 19.984 54.6157 19.984C54.1171 19.984 53.7247 20.1417 53.4387 20.457C53.1527 20.765 53.0097 21.172 53.0097 21.678V22.646C53.0097 23.152 53.1527 23.5627 53.4387 23.878C53.7247 24.186 54.1171 24.34 54.6157 24.34ZM59.1816 17.993C58.9909 17.993 58.8516 17.949 58.7636 17.861C58.6829 17.7657 58.6426 17.6447 58.6426 17.498V17.355C58.6426 17.2083 58.6829 17.091 58.7636 17.003C58.8516 16.9077 58.9909 16.86 59.1816 16.86C59.3723 16.86 59.5079 16.9077 59.5886 17.003C59.6766 17.091 59.7206 17.2083 59.7206 17.355V17.498C59.7206 17.6447 59.6766 17.7657 59.5886 17.861C59.5079 17.949 59.3723 17.993 59.1816 17.993ZM58.7416 19.324H59.6216V25H58.7416V19.324ZM62.6576 25C62.3496 25 62.1149 24.9157 61.9536 24.747C61.7996 24.571 61.7226 24.3437 61.7226 24.065V20.094H60.7876V19.324H61.3156C61.5063 19.324 61.6346 19.2873 61.7006 19.214C61.7739 19.1333 61.8106 18.9977 61.8106 18.807V17.751H62.6026V19.324H63.8456V20.094H62.6026V24.23H63.7576V25H62.6576ZM65.612 17.993C65.4214 17.993 65.282 17.949 65.194 17.861C65.1134 17.7657 65.073 17.6447 65.073 17.498V17.355C65.073 17.2083 65.1134 17.091 65.194 17.003C65.282 16.9077 65.4214 16.86 65.612 16.86C65.8027 16.86 65.9384 16.9077 66.019 17.003C66.107 17.091 66.151 17.2083 66.151 17.355V17.498C66.151 17.6447 66.107 17.7657 66.019 17.861C65.9384 17.949 65.8027 17.993 65.612 17.993ZM65.172 19.324H66.052V25H65.172V19.324ZM69.979 25.132C69.5977 25.132 69.2494 25.0623 68.934 24.923C68.6187 24.7837 68.3474 24.5857 68.12 24.329C67.9 24.065 67.7277 23.7533 67.603 23.394C67.4784 23.0273 67.416 22.6167 67.416 22.162C67.416 21.7147 67.4784 21.3077 67.603 20.941C67.7277 20.5743 67.9 20.2627 68.12 20.006C68.3474 19.742 68.6187 19.5403 68.934 19.401C69.2494 19.2617 69.5977 19.192 69.979 19.192C70.3604 19.192 70.705 19.2617 71.013 19.401C71.3284 19.5403 71.5997 19.742 71.827 20.006C72.0544 20.2627 72.2304 20.5743 72.355 20.941C72.4797 21.3077 72.542 21.7147 72.542 22.162C72.542 22.6167 72.4797 23.0273 72.355 23.394C72.2304 23.7533 72.0544 24.065 71.827 24.329C71.5997 24.5857 71.3284 24.7837 71.013 24.923C70.705 25.0623 70.3604 25.132 69.979 25.132ZM69.979 24.351C70.4557 24.351 70.8444 24.2043 71.145 23.911C71.4457 23.6177 71.596 23.1703 71.596 22.569V21.755C71.596 21.1537 71.4457 20.7063 71.145 20.413C70.8444 20.1197 70.4557 19.973 69.979 19.973C69.5024 19.973 69.1137 20.1197 68.813 20.413C68.5124 20.7063 68.362 21.1537 68.362 21.755V22.569C68.362 23.1703 68.5124 23.6177 68.813 23.911C69.1137 24.2043 69.5024 24.351 69.979 24.351ZM73.9013 25V19.324H74.7813V20.248H74.8253C74.9646 19.9253 75.159 19.6687 75.4083 19.478C75.665 19.2873 76.006 19.192 76.4313 19.192C77.018 19.192 77.48 19.3827 77.8173 19.764C78.162 20.138 78.3343 20.6697 78.3343 21.359V25H77.4543V21.513C77.4543 20.4937 77.0253 19.984 76.1673 19.984C75.9913 19.984 75.819 20.006 75.6503 20.05C75.489 20.094 75.3423 20.16 75.2103 20.248C75.0783 20.336 74.972 20.4497 74.8913 20.589C74.818 20.721 74.7813 20.8787 74.7813 21.062V25H73.9013ZM81.7703 25.132C81.2423 25.132 80.7986 25.033 80.4393 24.835C80.0873 24.6297 79.7829 24.3583 79.5263 24.021L80.1533 23.515C80.3733 23.7937 80.6189 24.01 80.8903 24.164C81.1616 24.3107 81.4769 24.384 81.8363 24.384C82.2103 24.384 82.4999 24.3033 82.7053 24.142C82.9179 23.9807 83.0243 23.7533 83.0243 23.46C83.0243 23.24 82.9509 23.053 82.8043 22.899C82.6649 22.7377 82.4083 22.6277 82.0343 22.569L81.5833 22.503C81.3193 22.4663 81.0773 22.4113 80.8573 22.338C80.6373 22.2573 80.4429 22.1547 80.2743 22.03C80.1129 21.898 79.9846 21.7367 79.8893 21.546C79.8013 21.3553 79.7573 21.128 79.7573 20.864C79.7573 20.5853 79.8086 20.3433 79.9113 20.138C80.0139 19.9253 80.1533 19.7493 80.3293 19.61C80.5126 19.4707 80.7289 19.368 80.9783 19.302C81.2276 19.2287 81.4953 19.192 81.7813 19.192C82.2433 19.192 82.6283 19.2727 82.9363 19.434C83.2516 19.5953 83.5266 19.819 83.7613 20.105L83.1783 20.633C83.0536 20.457 82.8703 20.2993 82.6283 20.16C82.3863 20.0133 82.0819 19.94 81.7153 19.94C81.3486 19.94 81.0699 20.0207 80.8793 20.182C80.6959 20.336 80.6043 20.5487 80.6043 20.82C80.6043 21.0987 80.6959 21.3003 80.8793 21.425C81.0699 21.5497 81.3413 21.6413 81.6933 21.7L82.1333 21.766C82.7639 21.8613 83.2113 22.0447 83.4753 22.316C83.7393 22.58 83.8713 22.9283 83.8713 23.361C83.8713 23.911 83.6843 24.3437 83.3103 24.659C82.9363 24.9743 82.4229 25.132 81.7703 25.132ZM85.8449 23.713C86.0796 23.713 86.2482 23.7753 86.3509 23.9C86.4609 24.0173 86.5159 24.1713 86.5159 24.362V24.516C86.5159 24.8167 86.4279 25.1467 86.2519 25.506C86.0759 25.8727 85.8302 26.1917 85.5149 26.463H84.7779C84.9979 26.2283 85.1739 26.0047 85.3059 25.792C85.4452 25.5867 85.5442 25.3557 85.6029 25.099C85.4562 25.0623 85.3462 24.9927 85.2729 24.89C85.2069 24.7873 85.1739 24.6627 85.1739 24.516V24.362C85.1739 24.1713 85.2252 24.0173 85.3279 23.9C85.4379 23.7753 85.6102 23.713 85.8449 23.713ZM90.7926 25V17.322H93.8506C94.5399 17.322 95.0679 17.52 95.4346 17.916C95.8086 18.3047 95.9956 18.84 95.9956 19.522C95.9956 20.204 95.8086 20.743 95.4346 21.139C95.0679 21.5277 94.5399 21.722 93.8506 21.722H91.7166V25H90.7926ZM91.7166 20.908H93.8506C94.2173 20.908 94.4996 20.8127 94.6976 20.622C94.9029 20.4313 95.0056 20.16 95.0056 19.808V19.236C95.0056 18.884 94.9029 18.6127 94.6976 18.422C94.4996 18.2313 94.2173 18.136 93.8506 18.136H91.7166V20.908ZM97.1801 25V19.324H98.0601V20.369H98.1151C98.2177 20.0977 98.4011 19.8557 98.6651 19.643C98.9291 19.4303 99.2921 19.324 99.7541 19.324H100.095V20.204H99.5781C99.1014 20.204 98.7274 20.2957 98.4561 20.479C98.1921 20.655 98.0601 20.8787 98.0601 21.15V25H97.1801ZM101.571 17.993C101.38 17.993 101.241 17.949 101.153 17.861C101.072 17.7657 101.032 17.6447 101.032 17.498V17.355C101.032 17.2083 101.072 17.091 101.153 17.003C101.241 16.9077 101.38 16.86 101.571 16.86C101.762 16.86 101.897 16.9077 101.978 17.003C102.066 17.091 102.11 17.2083 102.11 17.355V17.498C102.11 17.6447 102.066 17.7657 101.978 17.861C101.897 17.949 101.762 17.993 101.571 17.993ZM101.131 19.324H102.011V25H101.131V19.324ZM105.047 25L103.056 19.324H103.936L104.926 22.14L105.542 24.076H105.597L106.213 22.14L107.225 19.324H108.072L106.07 25H105.047ZM113.148 25C112.818 25 112.579 24.912 112.433 24.736C112.293 24.56 112.205 24.34 112.169 24.076H112.114C111.989 24.428 111.784 24.692 111.498 24.868C111.212 25.044 110.871 25.132 110.475 25.132C109.873 25.132 109.404 24.978 109.067 24.67C108.737 24.362 108.572 23.944 108.572 23.416C108.572 22.8807 108.766 22.47 109.155 22.184C109.551 21.898 110.163 21.755 110.992 21.755H112.114V21.194C112.114 20.7907 112.004 20.4827 111.784 20.27C111.564 20.0573 111.226 19.951 110.772 19.951C110.427 19.951 110.137 20.028 109.903 20.182C109.675 20.336 109.485 20.5413 109.331 20.798L108.803 20.303C108.957 19.995 109.202 19.7347 109.54 19.522C109.877 19.302 110.302 19.192 110.816 19.192C111.505 19.192 112.04 19.3607 112.422 19.698C112.803 20.0353 112.994 20.5047 112.994 21.106V24.23H113.643V25H113.148ZM110.618 24.384C110.838 24.384 111.039 24.3583 111.223 24.307C111.406 24.2557 111.564 24.1823 111.696 24.087C111.828 23.9917 111.93 23.8817 112.004 23.757C112.077 23.6323 112.114 23.4967 112.114 23.35V22.415H110.948C110.442 22.415 110.071 22.4883 109.837 22.635C109.609 22.7817 109.496 22.9943 109.496 23.273V23.504C109.496 23.7827 109.595 23.999 109.793 24.153C109.998 24.307 110.273 24.384 110.618 24.384ZM116.922 25.132C116.526 25.132 116.171 25.0623 115.855 24.923C115.54 24.7837 115.272 24.5857 115.052 24.329C114.84 24.0723 114.675 23.7607 114.557 23.394C114.447 23.0273 114.392 22.6167 114.392 22.162C114.392 21.7073 114.447 21.2967 114.557 20.93C114.675 20.5633 114.84 20.2517 115.052 19.995C115.272 19.7383 115.54 19.5403 115.855 19.401C116.171 19.2617 116.526 19.192 116.922 19.192C117.487 19.192 117.938 19.3167 118.275 19.566C118.62 19.808 118.877 20.127 119.045 20.523L118.308 20.897C118.206 20.6037 118.037 20.3763 117.802 20.215C117.568 20.0537 117.274 19.973 116.922 19.973C116.658 19.973 116.427 20.017 116.229 20.105C116.031 20.1857 115.866 20.303 115.734 20.457C115.602 20.6037 115.503 20.7833 115.437 20.996C115.371 21.2013 115.338 21.4287 115.338 21.678V22.646C115.338 23.1447 115.47 23.5553 115.734 23.878C116.006 24.1933 116.402 24.351 116.922 24.351C117.634 24.351 118.147 24.021 118.462 23.361L119.1 23.79C118.917 24.2007 118.642 24.527 118.275 24.769C117.916 25.011 117.465 25.132 116.922 25.132ZM123.753 19.324H124.622L122.081 26.32C122.015 26.4887 121.949 26.628 121.883 26.738C121.817 26.8553 121.736 26.947 121.641 27.013C121.545 27.079 121.424 27.1267 121.278 27.156C121.138 27.1853 120.966 27.2 120.761 27.2H120.31V26.43H121.201L121.63 25.22L119.507 19.324H120.387L121.751 23.185L122.015 24.109H122.07L122.378 23.185L123.753 19.324ZM128.168 19.324H129.048V20.248H129.092C129.238 19.8887 129.451 19.6247 129.73 19.456C130.016 19.28 130.357 19.192 130.753 19.192C131.105 19.192 131.424 19.2617 131.71 19.401C131.996 19.5403 132.238 19.7383 132.436 19.995C132.641 20.2517 132.795 20.5633 132.898 20.93C133.008 21.2967 133.063 21.7073 133.063 22.162C133.063 22.6167 133.008 23.0273 132.898 23.394C132.795 23.7607 132.641 24.0723 132.436 24.329C132.238 24.5857 131.996 24.7837 131.71 24.923C131.424 25.0623 131.105 25.132 130.753 25.132C129.983 25.132 129.429 24.78 129.092 24.076H129.048V27.2H128.168V19.324ZM130.511 24.34C131.009 24.34 131.402 24.186 131.688 23.878C131.974 23.5627 132.117 23.152 132.117 22.646V21.678C132.117 21.172 131.974 20.765 131.688 20.457C131.402 20.1417 131.009 19.984 130.511 19.984C130.313 19.984 130.122 20.0133 129.939 20.072C129.763 20.1233 129.609 20.1967 129.477 20.292C129.345 20.3873 129.238 20.5047 129.158 20.644C129.084 20.776 129.048 20.919 129.048 21.073V23.185C129.048 23.3683 129.084 23.5333 129.158 23.68C129.238 23.8193 129.345 23.9403 129.477 24.043C129.609 24.1383 129.763 24.2117 129.939 24.263C130.122 24.3143 130.313 24.34 130.511 24.34ZM136.605 25.132C136.224 25.132 135.876 25.0623 135.56 24.923C135.245 24.7837 134.974 24.5857 134.746 24.329C134.526 24.065 134.354 23.7533 134.229 23.394C134.105 23.0273 134.042 22.6167 134.042 22.162C134.042 21.7147 134.105 21.3077 134.229 20.941C134.354 20.5743 134.526 20.2627 134.746 20.006C134.974 19.742 135.245 19.5403 135.56 19.401C135.876 19.2617 136.224 19.192 136.605 19.192C136.987 19.192 137.331 19.2617 137.639 19.401C137.955 19.5403 138.226 19.742 138.453 20.006C138.681 20.2627 138.857 20.5743 138.981 20.941C139.106 21.3077 139.168 21.7147 139.168 22.162C139.168 22.6167 139.106 23.0273 138.981 23.394C138.857 23.7533 138.681 24.065 138.453 24.329C138.226 24.5857 137.955 24.7837 137.639 24.923C137.331 25.0623 136.987 25.132 136.605 25.132ZM136.605 24.351C137.082 24.351 137.471 24.2043 137.771 23.911C138.072 23.6177 138.222 23.1703 138.222 22.569V21.755C138.222 21.1537 138.072 20.7063 137.771 20.413C137.471 20.1197 137.082 19.973 136.605 19.973C136.129 19.973 135.74 20.1197 135.439 20.413C135.139 20.7063 134.988 21.1537 134.988 21.755V22.569C134.988 23.1703 135.139 23.6177 135.439 23.911C135.74 24.2043 136.129 24.351 136.605 24.351ZM141.463 25C141.155 25 140.92 24.9157 140.759 24.747C140.605 24.571 140.528 24.351 140.528 24.087V16.86H141.408V24.23H142.244V25H141.463ZM143.877 17.993C143.686 17.993 143.547 17.949 143.459 17.861C143.378 17.7657 143.338 17.6447 143.338 17.498V17.355C143.338 17.2083 143.378 17.091 143.459 17.003C143.547 16.9077 143.686 16.86 143.877 16.86C144.067 16.86 144.203 16.9077 144.284 17.003C144.372 17.091 144.416 17.2083 144.416 17.355V17.498C144.416 17.6447 144.372 17.7657 144.284 17.861C144.203 17.949 144.067 17.993 143.877 17.993ZM143.437 19.324H144.317V25H143.437V19.324ZM148.211 25.132C147.815 25.132 147.459 25.0623 147.144 24.923C146.828 24.7837 146.561 24.5857 146.341 24.329C146.128 24.0723 145.963 23.7607 145.846 23.394C145.736 23.0273 145.681 22.6167 145.681 22.162C145.681 21.7073 145.736 21.2967 145.846 20.93C145.963 20.5633 146.128 20.2517 146.341 19.995C146.561 19.7383 146.828 19.5403 147.144 19.401C147.459 19.2617 147.815 19.192 148.211 19.192C148.775 19.192 149.226 19.3167 149.564 19.566C149.908 19.808 150.165 20.127 150.334 20.523L149.597 20.897C149.494 20.6037 149.325 20.3763 149.091 20.215C148.856 20.0537 148.563 19.973 148.211 19.973C147.947 19.973 147.716 20.017 147.518 20.105C147.32 20.1857 147.155 20.303 147.023 20.457C146.891 20.6037 146.792 20.7833 146.726 20.996C146.66 21.2013 146.627 21.4287 146.627 21.678V22.646C146.627 23.1447 146.759 23.5553 147.023 23.878C147.294 24.1933 147.69 24.351 148.211 24.351C148.922 24.351 149.435 24.021 149.751 23.361L150.389 23.79C150.205 24.2007 149.93 24.527 149.564 24.769C149.204 25.011 148.753 25.132 148.211 25.132ZM155.041 19.324H155.91L153.369 26.32C153.303 26.4887 153.237 26.628 153.171 26.738C153.105 26.8553 153.024 26.947 152.929 27.013C152.834 27.079 152.713 27.1267 152.566 27.156C152.427 27.1853 152.254 27.2 152.049 27.2H151.598V26.43H152.489L152.918 25.22L150.795 19.324H151.675L153.039 23.185L153.303 24.109H153.358L153.666 23.185L155.041 19.324Z" fill="#212529"/>
</svg>
